<svg xmlns="http://www.w3.org/2000/svg" viewBox="0 0 24 24" fill="none" style="color: #101828;"> <path d="M5.55556 14.0905V19.7778C5.55556 21.0051 6.55048 22 7.77778 22C9.00508 22 10 21.0051 10 19.7778V18C10 16.8954 10.8954 16 12 16C13.1046 16 14 16.8954 14 18V19.7778C14 21.0051 14.9949 22 16.2222 22C17.4495 22 18.4444 21.0051 18.4444 19.7778V14.0905C18.4444 13.4882 18.9327 13 19.5349 13C20.4816 13 20.9786 11.8765 20.3418 11.176L14.2198 4.4418C13.0295 3.13249 10.9705 3.1325 9.78018 4.4418L3.65819 11.176C3.02138 11.8765 3.51839 13 4.46508 13C5.06733 13 5.55556 13.4882 5.55556 14.0905Z" stroke="currentColor" stroke-width="1.5" stroke-linejoin="round"></path> </svg>